<svg xmlns="http://www.w3.org/2000/svg" viewBox="0 0 860 560" width="860" height="560">
<defs>
  <style>
    .bg      { fill: #0d1117; }
    .s1      { fill: #161b22; }
    .s2      { fill: #1c2128; }
    .s3      { fill: #21262d; }
    .b1      { stroke: #30363d; stroke-width: 1; fill: none; }
    .b2      { stroke: #21262d; stroke-width: 1; fill: none; }
    .t1      { fill: #e6edf3; }
    .t2      { fill: #c9d1d9; }
    .t3      { fill: #8b949e; }
    .t4      { fill: #484f58; }
    .red     { fill: #f85149; }
    .amber   { fill: #d29922; }
    .blue    { fill: #388bfd; }
    .green   { fill: #3fb950; }
    .cyan    { fill: #79c0ff; }
    .mono    { font-family: 'SF Mono', 'Cascadia Code', monospace; }
    .sans    { font-family: -apple-system, 'Segoe UI', sans-serif; }
    .bold    { font-weight: 700; }
    .med     { font-weight: 500; }
    .upper   { text-transform: uppercase; }
  </style>
</defs>

<!-- Page background -->
<rect width="860" height="560" class="bg"/>

<!-- ── HEADER ── -->
<text x="24" y="42" class="sans bold t1" font-size="17">MCP Doctor</text>
<text x="24" y="59" class="sans t3" font-size="12">Diagnose and fix broken MCP servers.</text>

<rect x="790" y="26" width="42" height="16" rx="8" class="s3"/>
<rect x="790" y="26" width="42" height="16" rx="8" class="b1"/>
<text x="811" y="38" text-anchor="middle" class="mono t3" font-size="10">v0.1.0</text>
<text x="790" y="58" text-anchor="end" class="mono t3" font-size="10">2026-05-04 12:00 UTC</text>

<line x1="24" y1="70" x2="836" y2="70" stroke="#30363d" stroke-width="1"/>

<!-- ── HERO ── -->
<rect x="24" y="82" width="812" height="158" rx="7" class="s1"/>
<rect x="24" y="82" width="812" height="158" rx="7" class="b1"/>

<!-- Hero left panel -->
<rect x="24" y="82" width="400" height="158" rx="0" class="s1"/>
<rect x="24" y="82" width="400" height="158" rx="7" class="s1"/>
<!-- clip right corners of left panel -->
<rect x="418" y="82" width="10" height="158" class="s1"/>

<!-- Status badge -->
<text x="48" y="115" class="sans bold red" font-size="24" letter-spacing="-0.5">BROKEN</text>

<!-- Score -->
<text x="48" y="163" class="sans bold red" font-size="46" letter-spacing="-3">4</text>
<text x="86" y="163" class="sans t3" font-size="18">/100</text>

<!-- Score bar -->
<rect x="48" y="172" width="340" height="3" rx="1" fill="#30363d"/>
<rect x="48" y="172" width="14" height="3" rx="1" fill="#f85149"/>

<!-- Status desc -->
<text x="48" y="198" class="sans t3" font-size="12">Critical issues detected. Fix HIGH findings first.</text>

<!-- Divider between hero panels -->
<line x1="425" y1="86" x2="425" y2="235" stroke="#30363d" stroke-width="1"/>

<!-- Hero right panel -->
<rect x="426" y="82" width="410" height="158" rx="0" class="s2"/>
<rect x="820" y="82" width="16" height="158" class="s2"/>
<!-- round right corners -->

<text x="450" y="106" class="sans t3 upper" font-size="10" letter-spacing="0.8" font-weight="600">What to fix first</text>

<!-- Fix item 1 -->
<rect x="450" y="115" width="18" height="18" rx="9" class="s3"/>
<rect x="450" y="115" width="18" height="18" rx="9" class="b1"/>
<text x="459" y="128" text-anchor="middle" class="sans t4" font-size="10" font-weight="600">1</text>
<text x="476" y="126" class="sans t1 med" font-size="12">Server missing &quot;command&quot; field</text>
<rect x="720" y="116" width="110" height="14" rx="6" class="s3"/>
<rect x="720" y="116" width="110" height="14" rx="6" class="b1"/>
<text x="775" y="127" text-anchor="middle" class="mono t4" font-size="9">broken-no-command</text>
<text x="476" y="140" class="sans t3" font-size="11">Add a &quot;command&quot; field to server config</text>
<line x1="450" y1="148" x2="830" y2="148" stroke="#21262d" stroke-width="1"/>

<!-- Fix item 2 -->
<rect x="450" y="155" width="18" height="18" rx="9" class="s3"/>
<rect x="450" y="155" width="18" height="18" rx="9" class="b1"/>
<text x="459" y="168" text-anchor="middle" class="sans t4" font-size="10" font-weight="600">2</text>
<text x="476" y="166" class="sans t1 med" font-size="12">Placeholder value: GITHUB_TOKEN</text>
<rect x="748" y="156" width="82" height="14" rx="6" class="s3"/>
<rect x="748" y="156" width="82" height="14" rx="6" class="b1"/>
<text x="789" y="167" text-anchor="middle" class="mono t4" font-size="9">github</text>
<text x="476" y="180" class="sans t3" font-size="11">Replace placeholder with your real token value</text>
<line x1="450" y1="188" x2="830" y2="188" stroke="#21262d" stroke-width="1"/>

<!-- Fix item 3 -->
<rect x="450" y="195" width="18" height="18" rx="9" class="s3"/>
<rect x="450" y="195" width="18" height="18" rx="9" class="b1"/>
<text x="459" y="208" text-anchor="middle" class="sans t4" font-size="10" font-weight="600">3</text>
<text x="476" y="206" class="sans t1 med" font-size="12">Filesystem server has overly broad access</text>
<text x="476" y="220" class="sans t3" font-size="11">Scope to project directory, not /Users or /</text>

<!-- ── STATS STRIP ── -->
<rect x="24" y="252" width="812" height="58" rx="7" class="s1"/>
<rect x="24" y="252" width="812" height="58" rx="7" class="b1"/>

<!-- Stat: configs -->
<text x="129" y="277" text-anchor="middle" class="sans bold t1" font-size="22">1</text>
<text x="129" y="293" text-anchor="middle" class="sans t3 upper" font-size="10" letter-spacing="0.5">configs</text>
<line x1="236" y1="266" x2="236" y2="296" stroke="#30363d" stroke-width="1"/>

<!-- Stat: servers -->
<text x="290" y="277" text-anchor="middle" class="sans bold t1" font-size="22">3</text>
<text x="290" y="293" text-anchor="middle" class="sans t3 upper" font-size="10" letter-spacing="0.5">servers</text>
<line x1="348" y1="266" x2="348" y2="296" stroke="#30363d" stroke-width="1"/>

<!-- Stat: HIGH -->
<text x="428" y="277" text-anchor="middle" class="sans bold red" font-size="22">4</text>
<text x="428" y="293" text-anchor="middle" class="sans t3 upper" font-size="10" letter-spacing="0.5">high</text>
<line x1="508" y1="266" x2="508" y2="296" stroke="#30363d" stroke-width="1"/>

<!-- Stat: MEDIUM -->
<text x="592" y="277" text-anchor="middle" class="sans bold amber" font-size="22">2</text>
<text x="592" y="293" text-anchor="middle" class="sans t3 upper" font-size="10" letter-spacing="0.5">medium</text>
<line x1="676" y1="266" x2="676" y2="296" stroke="#30363d" stroke-width="1"/>

<!-- Stat: LOW -->
<text x="752" y="277" text-anchor="middle" class="sans bold blue" font-size="22">0</text>
<text x="752" y="293" text-anchor="middle" class="sans t3 upper" font-size="10" letter-spacing="0.5">low</text>

<!-- ── FINDINGS SECTION ── -->
<text x="24" y="338" class="sans bold t1" font-size="13">Findings</text>
<line x1="24" y1="346" x2="836" y2="346" stroke="#30363d" stroke-width="1"/>

<text x="24" y="365" class="sans red upper" font-size="11" font-weight="600" letter-spacing="0.5">HIGH — 4 findings</text>

<!-- Finding card 1 -->
<rect x="24" y="372" width="812" height="60" rx="0" class="s1"/>
<rect x="24" y="372" width="812" height="60" rx="0" style="stroke:#30363d;stroke-width:1;fill:none"/>
<!-- round right side -->
<rect x="28" y="372" width="808" height="60" rx="6" class="s1"/>
<rect x="28" y="372" width="808" height="60" rx="6" style="stroke:#30363d;stroke-width:1;fill:none"/>
<!-- left accent border -->
<rect x="24" y="372" width="4" height="60" fill="#f85149"/>

<text x="38" y="391" class="sans red upper" font-size="9" font-weight="700" letter-spacing="0.5">HIGH</text>
<text x="80" y="391" class="sans t1 med" font-size="13">Server missing required &quot;command&quot; field</text>

<rect x="38" y="398" width="792" height="20" rx="3" class="s3"/>
<text x="46" y="413" class="mono t2" font-size="11">Server "broken-no-command": command = undefined</text>

<rect x="38" y="396" width="55" height="14" rx="7" class="s3"/>
<rect x="38" y="396" width="55" height="14" rx="7" class="b2"/>
<text x="65" y="407" text-anchor="middle" class="mono t4" font-size="9">CFG-004</text>

<!-- Finding card 2 -->
<rect x="24" y="438" width="812" height="60" rx="0" class="s1"/>
<rect x="28" y="438" width="808" height="60" rx="6" class="s1"/>
<rect x="28" y="438" width="808" height="60" rx="6" style="stroke:#30363d;stroke-width:1;fill:none"/>
<rect x="24" y="438" width="4" height="60" fill="#f85149"/>

<text x="38" y="457" class="sans red upper" font-size="9" font-weight="700" letter-spacing="0.5">HIGH</text>
<text x="80" y="457" class="sans t1 med" font-size="13">Placeholder value detected: GITHUB_TOKEN</text>

<rect x="38" y="462" width="792" height="20" rx="3" class="s3"/>
<text x="46" y="477" class="mono t2" font-size="11">GITHUB_TOKEN = "YOUR_****"</text>

<!-- MEDIUM finding -->
<text x="24" y="516" class="sans amber upper" font-size="11" font-weight="600" letter-spacing="0.5">MEDIUM — 2 findings</text>

<rect x="24" y="523" width="812" height="24" rx="0" class="s1"/>
<rect x="28" y="523" width="808" height="24" rx="5" class="s1"/>
<rect x="28" y="523" width="808" height="24" style="stroke:#30363d;stroke-width:1;fill:none;rx:5"/>
<rect x="24" y="523" width="4" height="24" fill="#d29922"/>

<text x="38" y="536" class="sans amber upper" font-size="9" font-weight="700" letter-spacing="0.5">MEDIUM</text>
<text x="90" y="536" class="sans t1 med" font-size="13">GUI app PATH may not include your shell PATH</text>

<!-- ── FOOTER ── -->
<line x1="24" y1="553" x2="836" y2="553" stroke="#30363d" stroke-width="1"/>
<text x="24" y="547" class="sans t3" font-size="11">MCP Doctor v0.1.0 — github.com/stephenywilson/MCP-Doctor</text>
<text x="836" y="547" text-anchor="end" class="sans t3" font-size="11">Secrets masked · No network access</text>
</svg>
